# xmcd CD database file
#
# Track frame offsets:
#	150
#	21957
#	45244
#	70214
#	91878
#	112773
#	134330
#	158432
#	182736
#	203223
#	227785
#	250095
#	273007
#
# Disc length: 3890 seconds
#
# Revision: 16
# Processed by: cddbd v1.5PL3 Copyright (c) Steve Scherf et al.
# Submitted via: CDex 1.51
#
DISCID=9d0f300d
DTITLE=宇多田ヒカル - Distance
DYEAR=2001
DGENRE=JPop
TTITLE0=Wait and See 〜リスク〜
TTITLE1=Can You Keep a Secret?
TTITLE2=Distance
TTITLE3=サングラス
TTITLE4=ドラマ
TTITLE5=Eternally
TTITLE6=Addicted to You (UP-IN-HEAVEN MIX)
TTITLE7=For You
TTITLE8=蹴っ飛ばせ！
TTITLE9=Parody
TTITLE10=タイムリミット
TTITLE11=言葉にならない気持ち (Indescribable Feelings)
TTITLE12=HAYATOCHI-REMIX
EXTD=YEAR: 2001
EXTT0=
EXTT1=
EXTT2=
EXTT3=
EXTT4=
EXTT5=
EXTT6=
EXTT7=
EXTT8=
EXTT9=
EXTT10=
EXTT11=
EXTT12=
PLAYORDER=
